<svg id="Capa_1" enable-background="new 0 0 512 512" height="512" viewBox="0 0 512 512" width="512" xmlns="http://www.w3.org/2000/svg" xmlns:xlink="http://www.w3.org/1999/xlink"><linearGradient id="SVGID_1_" gradientUnits="userSpaceOnUse" x1="256" x2="256" y1="437" y2="0"><stop offset="0" stop-color="#ffe59a"/><stop offset="1" stop-color="#ffffd5"/></linearGradient><linearGradient id="SVGID_2_" gradientUnits="userSpaceOnUse" x1="256" x2="256" y1="512" y2="67.075"><stop offset="0" stop-color="#fd5900"/><stop offset="1" stop-color="#ffde00"/></linearGradient><g><g><g><g><path d="m503.731 122.595-241-121c-4.234-2.126-9.227-2.126-13.461 0l-241 121c-5.07 2.545-8.27 7.733-8.27 13.405v60c0 8.284 6.716 15 15 15h46l29 16h333l28-16h46c8.284 0 15-6.716 15-15v-60c0-5.672-3.2-10.86-8.269-13.405zm-412.731 314.405h90v-181h-90zm120 0h90v-181h-90zm120 0h90v-181h-90z" fill="url(#SVGID_1_)"/></g></g></g><g><g><path d="m497 452h-46v-15c0-8.284-6.716-15-15-15h-360c-8.284 0-15 6.716-15 15v15h-46c-8.284 0-15 6.716-15 15v30c0 8.284 6.716 15 15 15h482c8.284 0 15-6.716 15-15v-30c0-8.284-6.716-15-15-15zm-421-181h360c8.284 0 15-6.716 15-15v-45h-390v45c0 8.284 6.716 15 15 15zm74.165-120h211.67c6.936 0 12.967-4.755 14.586-11.498 1.619-6.744-1.597-13.718-7.776-16.867l-105.835-53.925c-4.277-2.18-9.342-2.18-13.619 0l-105.835 53.925c-6.18 3.149-9.396 10.123-7.776 16.867 1.618 6.743 7.65 11.498 14.585 11.498z" fill="url(#SVGID_2_)"/></g></g></g></svg>