<svg xmlns="http://www.w3.org/2000/svg" viewBox="0 0 1300 1300" width="1000" height="1000"><path id="I3" class="shp0" d="M200 1150L300 1150L300 1250L200 1250L200 1150Z" /><path id="I2" class="shp0" d="M100 1150L100 1250L-1 1250L-1 1150L100 1150Z" /><path id="I" class="shp0" d="M500 550L500 250L200 250L200 950L100 950L100 150L600 150L600 50L-3 50L-3 1050L300 1050L300 350L400 350L400 550L500 550Z" /><path id="W" fill-rule="evenodd" class="shp0" d="M900 850L600 850L600 650L700 650L700 750L800 750L800 550L600 550L600 250L900 250L900 850ZM700 350L700 450L800 450L800 350L700 350Z" /><path id="A" class="shp0" d="M500 650L400 650L400 1250L500 1250L500 650Z" /><path id="S" class="shp0" d="M1300 50L700 50L700 150L1200 150L1200 250L1000 250L1000 350L1200 350L1200 450L1000 450L1000 550L1200 550L1200 950L1100 950L1100 650L1000 650L1000 1050L1200 1050L1200 1150L900 1150L900 950L600 950L600 1050L800 1050L800 1150L600 1150L600 1250L1300 1250L1300 50Z" /></svg>